<?xml version="1.0" encoding="UTF-8"?>
<svg id="Camada_2" data-name="Camada 2" xmlns="http://www.w3.org/2000/svg" viewBox="0 0 1976.53 325.34">
  <defs>
    <style>
      .cls-1 {
        fill: #fff;
      }
    </style>
  </defs>
  <g id="Camada_1-2" data-name="Camada 1">
    <g>
      <g>
        <path class="cls-1" d="M754.12,61.74v-.5h52.83v.5c-4.06,0-7.55,1.45-10.45,4.35-2.9,2.9-4.35,6.38-4.35,10.44v172.16c0,4.14,1.45,7.66,4.35,10.57,2.9,2.9,6.38,4.35,10.45,4.35v.5h-52.83v-.5c4.14,0,7.65-1.45,10.5-4.35,2.86-2.9,4.29-6.42,4.29-10.57V76.53c0-4.06-1.43-7.54-4.29-10.44-2.86-2.9-6.36-4.35-10.5-4.35Z"/>
        <path class="cls-1" d="M1070.42,263.6v.5h-32.94l-146.43-184.22v230.17c0,4.06,1.43,7.54,4.29,10.44s6.32,4.35,10.38,4.35v.5h-32.94v-.5c4.06,0,7.54-1.45,10.44-4.35,2.9-2.9,4.35-6.38,4.35-10.44V76.53c0-.41-.04-.78-.13-1.12-.83-6.55-4.27-10.89-10.31-13.05-1.41-.42-2.86-.62-4.35-.62v-.5h32.94l146.43,184.22V15.17c0-4.06-1.43-7.52-4.29-10.38-2.86-2.86-6.32-4.29-10.38-4.29h-.13v-.5h33.06v.5c-4.06,0-7.54,1.43-10.44,4.29-2.9,2.86-4.35,6.32-4.35,10.38v233.65c0,.33.04.66.13.99.83,6.55,4.26,10.9,10.31,13.05,1.41.5,2.86.75,4.35.75Z"/>
        <path class="cls-1" d="M1334.26,250.43c1.99,4.23,5.01,7.48,9.07,9.76,4.06,2.28,7.21,3.42,9.45,3.42v.5h-55.69v-.5c3.23,0,6.3-1.18,9.2-3.54,2.9-2.36,3.6-5.78,2.11-10.26-6.71-16.74-15.83-39.53-27.35-68.37h-93.22l-27.72,68.61c-1.16,3.4-.79,6.51,1.12,9.32,1.9,2.82,4.59,4.23,8.08,4.23v.5h-33.06v-.5c4.39,0,8.41-1.24,12.06-3.73,3.64-2.48,6.34-5.8,8.08-9.94l76.32-188.69h25.11c12.02,29.67,22.31,55.11,30.89,76.32,8.58,21.21,17.03,42.14,25.36,62.77,8.33,20.64,15.06,37.33,20.2,50.1ZM1189.32,177.96h90.37c-7.38-18.23-14.47-35.86-21.26-52.89-6.8-17.03-14.75-36.81-23.87-59.35l-45.25,112.24Z"/>
        <path class="cls-1" d="M1408.92,61.24h179.99l9.08,51.71h-.88c-4.64-9.78-9.28-17.82-13.92-24.12-4.64-6.3-10.46-11.83-17.46-16.59-7.01-4.76-15.18-7.27-24.55-7.52h-28.96v183.97c0,4.14,1.45,7.66,4.35,10.57,2.9,2.9,6.38,4.35,10.44,4.35v.5h-52.83v-.5c4.14,0,7.66-1.45,10.57-4.35,2.89-2.9,4.35-6.42,4.35-10.57V64.72h-32.45c-9.36.25-17.55,2.78-24.55,7.58-7,4.81-12.83,10.34-17.47,16.59-4.64,6.26-9.28,14.28-13.92,24.05h-.74l8.95-51.71Z"/>
        <path class="cls-1" d="M1842.94,89.83c10.27,9.86,18.12,21.03,23.56,33.5,5.43,12.47,8.14,25.58,8.14,39.34s-2.71,26.87-8.14,39.34c-5.43,12.47-13.28,23.6-23.56,33.38-10.28,9.78-21.94,17.24-35,22.37-13.05,5.14-26.79,7.7-41.2,7.7s-28.16-2.57-41.2-7.7c-13.05-5.14-24.72-12.6-35-22.37-10.27-9.78-18.13-20.9-23.56-33.38-5.43-12.47-8.14-25.58-8.14-39.34s2.71-26.87,8.14-39.34c5.43-12.47,13.28-23.64,23.56-33.5,10.28-9.69,21.94-17.13,35-22.31,13.05-5.18,26.78-7.77,41.2-7.77s28.16,2.59,41.2,7.77c13.05,5.18,24.72,12.62,35,22.31ZM1766.74,261.99c14.42,0,26.93-2.57,37.54-7.71,10.6-5.14,19.39-12.22,26.35-21.26,6.96-9.03,12.16-19.55,15.6-31.57,3.43-12.01,5.16-24.86,5.16-38.53s-1.73-26.54-5.16-38.59c-3.44-12.06-8.64-22.66-15.6-31.82-6.96-9.16-15.75-16.32-26.35-21.5-10.61-5.18-23.12-7.77-37.54-7.77s-26.93,2.59-37.54,7.77c-10.61,5.18-19.41,12.35-26.41,21.5-7,9.16-12.2,19.76-15.6,31.82-3.39,12.06-5.09,24.92-5.09,38.59s1.7,26.52,5.09,38.53c3.4,12.02,8.6,22.54,15.6,31.57,7,9.03,15.8,16.12,26.41,21.26,10.61,5.14,23.12,7.71,37.54,7.71Z"/>
        <path class="cls-1" d="M1946.24,250.86c0-9.42,6.36-16.04,15.27-16.04s15.02,6.62,15.02,16.04-5.86,16.04-15.27,16.04c-8.91,0-15.02-6.87-15.02-16.04Z"/>
      </g>
      <path class="cls-1" d="M116.85,260.5c9.36-.25,17.52-2.75,24.49-7.52,6.96-4.76,12.78-10.3,17.46-16.59,4.68-6.3,9.35-14.33,13.98-24.12h.75l-8.95,51.83h-38.78l-.13-.13-125.67.13v-.5c4.06,0,7.54-1.45,10.44-4.35s4.35-6.42,4.35-10.57V76.53c0-4.06-1.45-7.54-4.35-10.44-2.9-2.9-6.38-4.35-10.44-4.35v-.5h52.83v.5c-4.14,0-7.67,1.45-10.57,4.35-2.9,2.9-4.34,6.38-4.34,10.44v183.97h78.93ZM398.71,60.87v-.5h32.32v.5c-3.98,0-7.38,1.28-10.19,3.85-2.82,2.57-4.23,5.89-4.23,9.95l-.13,103.29c0,15.99-3.91,30.58-11.75,43.75-7.83,13.18-18.29,23.62-31.39,31.33-13.09,7.7-27.72,11.64-43.88,11.81-16.24-.25-30.84-4.29-43.82-12.12-12.97-7.83-23.35-18.4-31.13-31.7-7.8-13.3-11.69-27.95-11.69-43.94v-102.67c0-3.73-1.3-6.92-3.91-9.57-2.61-2.65-5.78-3.98-9.51-3.98v-.5h50.22v.5c-3.73,0-6.94,1.35-9.63,4.04-2.69,2.69-4.04,5.9-4.04,9.63v103.42c0,11.52,1.18,22.31,3.54,32.38,2.36,10.07,6.07,18.91,11.13,26.54,5.05,7.62,11.62,13.61,19.7,17.96,8.08,4.35,17.87,6.53,29.39,6.53,15.33,0,29.29-3.75,41.89-11.25,12.6-7.5,22.66-17.57,30.21-30.2,7.54-12.64,11.31-26.62,11.31-41.95v-103.29c0-4.06-1.41-7.38-4.23-9.95-2.82-2.57-6.21-3.85-10.2-3.85ZM675.49,65.96c-3.56,2.24-6.55,4.93-8.95,8.08-.49.75-5.78,8.56-15.85,23.43-10.07,14.88-22.29,32.96-36.67,54.26-14.38,21.3-28.34,41.98-41.89,62.03-13.55,20.05-24.1,35.63-31.64,46.74h89.75c9.36-.25,17.53-2.75,24.49-7.52,6.96-4.76,12.78-10.3,17.47-16.59,4.68-6.3,9.34-14.33,13.98-24.12h.74l-8.95,51.83-181.11-.13v-.5c4.23,0,8.5-1.41,12.8-4.23,3.64-2.32,6.67-5.01,9.08-8.08.49-.83,6-9.01,16.53-24.55,10.52-15.54,23.16-34.22,37.92-56.06,14.75-21.83,28.79-42.64,42.14-62.4,13.34-19.76,23.12-34.25,29.34-43.44h-89.87c-9.36.25-17.55,2.76-24.55,7.52-7.01,4.77-12.83,10.3-17.47,16.59-4.64,6.3-9.28,14.34-13.92,24.12h-.87l8.95-51.71h181.36v.5c-4.23,0-8.5,1.41-12.8,4.23Z"/>
    </g>
  </g>
</svg>